<svg width="165" height="37" viewBox="0 0 165 37" fill="none" xmlns="http://www.w3.org/2000/svg">
<g id="Group">
<path id="Vector" d="M156.614 0.5271H0V11.9161L3.07176 18.5001L0 25.0812V36.473H156.614L165 18.5001L156.614 0.5271Z" fill="#004360"/>
<g id="Group_2">
<path id="Vector_2" d="M155.012 3.04419H2.51611V11.3585L5.84815 18.5002L2.51611 25.642V33.9563H155.009L162.219 18.5002L155.009 3.04419H155.012ZM153.942 32.2774H4.195V26.0138L7.69864 18.5002L4.195 10.9867V4.72308H153.942L160.369 18.5002L153.942 32.2774Z" fill="white"/>
<path id="Vector_3" d="M49.8914 14.5219H54.0643V24.6839H56.83V14.5219H60.4166V12.2625H49.8914V14.5219Z" fill="white"/>
<path id="Vector_4" d="M72.2487 12.2625H61.7263V14.5219H65.3129V24.6839H68.0786V14.5219H72.2487V12.2625Z" fill="white"/>
<path id="Vector_5" d="M103.841 12.0332C100.275 12.0332 97.3748 14.9334 97.3748 18.4999C97.3748 22.0665 100.275 24.9666 103.841 24.9666C107.408 24.9666 110.308 22.0665 110.308 18.4999C110.308 14.9334 107.408 12.0332 103.841 12.0332ZM103.841 22.6499C101.553 22.6499 99.6915 20.788 99.6915 18.4999C99.6915 16.2118 101.553 14.3499 103.841 14.3499C106.13 14.3499 107.991 16.2118 107.991 18.4999C107.991 20.788 106.13 22.6499 103.841 22.6499Z" fill="white"/>
<path id="Vector_6" d="M117.928 12.0332C114.361 12.0332 111.461 14.9334 111.461 18.4999C111.461 22.0665 114.361 24.9666 117.928 24.9666C121.494 24.9666 124.394 22.0665 124.394 18.4999C124.394 14.9334 121.494 12.0332 117.928 12.0332ZM117.928 22.6499C115.64 22.6499 113.778 20.788 113.778 18.4999C113.778 16.2118 115.64 14.3499 117.928 14.3499C120.216 14.3499 122.078 16.2118 122.078 18.4999C122.078 20.788 120.216 22.6499 117.928 22.6499Z" fill="white"/>
<path id="Vector_7" d="M19.9111 14.3475C21.1438 14.3475 22.2993 14.848 23.1144 15.7289L24.6102 14.2331C23.3804 12.8316 21.6186 12.0308 19.7509 12.0308C16.1843 12.0308 13.2842 14.9309 13.2842 18.4975C13.2842 22.064 16.1843 24.9642 19.7509 24.9642C21.6186 24.9642 23.3804 24.1634 24.6102 22.7619L23.1144 21.2661C22.2964 22.147 21.1409 22.6475 19.9111 22.6475C17.5343 22.6475 15.6037 20.7856 15.6037 18.4975C15.6037 16.2094 17.5372 14.3475 19.9111 14.3475Z" fill="white"/>
<path id="Vector_8" d="M34.9865 17.6394H28.8487V12.208H26.083V24.6838H28.8487V19.6672H34.9865V24.6838H37.7523V12.2624H34.9865V17.6394Z" fill="white"/>
<path id="Vector_9" d="M93.1384 17.2705L85.1244 12.2625H84.2349V24.6839H87.0035V16.3295L93.1384 20.1964V24.6839H95.9041V12.2625H93.1384V17.2705Z" fill="white"/>
<path id="Vector_10" d="M45.0287 12.2625L39.2341 24.6868H42.0942L42.7006 23.3883H48.4323L49.0386 24.6868H51.8987L46.107 12.2625H45.0287ZM43.4242 21.4005L45.5693 16.8043L47.7144 21.4005H43.4271H43.4242Z" fill="white"/>
<path id="Vector_11" d="M76.0351 12.2625L70.2405 24.6868H73.1006L73.7069 23.3883H79.4386L80.0449 24.6868H82.9051L77.1133 12.2625H76.0351ZM74.4305 21.4005L76.5756 16.8043L78.7207 21.4005H74.4334H74.4305Z" fill="white"/>
<path id="Vector_12" d="M143.286 12.2625L137.491 24.6868H140.351L140.958 23.3883H146.689L147.296 24.6868H150.156L144.364 12.2625H143.286ZM141.681 21.4005L143.826 16.8043L145.971 21.4005H141.684H141.681Z" fill="white"/>
<path id="Vector_13" d="M138.131 18.1882L132.491 18.1939V20.0387H135.897L135.817 20.2789C135.314 21.7633 133.918 22.6499 132.082 22.6499C129.794 22.6499 127.932 20.788 127.932 18.4999C127.932 16.2118 129.794 14.3499 132.082 14.3499C133.229 14.3499 134.319 14.8247 135.102 15.6541L136.89 14.1754C135.663 12.8112 133.921 12.0332 132.082 12.0332C128.515 12.0332 125.615 14.9334 125.615 18.4999C125.615 22.0665 128.515 24.9666 132.082 24.9666C135.44 24.9666 138.171 22.2352 138.171 18.8775C138.171 18.6486 138.157 18.417 138.131 18.1882Z" fill="white"/>
</g>
</g>
</svg>
